<?xml version="1.0" encoding="UTF-8" standalone="no"?>
<svg
   xmlns:dc="http://purl.org/dc/elements/1.1/"
   xmlns:cc="http://creativecommons.org/ns#"
   xmlns:rdf="http://www.w3.org/1999/02/22-rdf-syntax-ns#"
   xmlns:svg="http://www.w3.org/2000/svg"
   xmlns="http://www.w3.org/2000/svg"
   height="313.43991"
   width="338.97595"
   version="1.1"
   viewBox="0 0 338.97595 313.43991"
   data-name="logo art"
   id="logo_art">
  <metadata
     id="metadata13">
    <rdf:RDF>
      <cc:Work
         rdf:about="">
        <dc:format>image/svg+xml</dc:format>
        <dc:type
           rdf:resource="http://purl.org/dc/dcmitype/StillImage" />
        <dc:title>gitlab-icon-1-color-white-rgb</dc:title>
      </cc:Work>
    </rdf:RDF>
  </metadata>
  <defs
     id="defs4">
    <style
       id="style2">.cls-1{fill:#fff;}</style>
  </defs>
  <title
     id="title6">gitlab-icon-1-color-white-rgb</title>
  <path
     style="opacity:0.9;fill:#ffffff"
     id="path8"
     d="m 337.96982,175.57033 -17.78,-54.63 a 7.72,7.72 0 0 0 -0.43,-1.47 l -35.67,-109.8000035 a 14.18,14.18 0 0 0 -13.54,-9.67000004639 13.94,13.94 0 0 0 -13.38,9.75000004639 l -34,104.6300035 h -107.31 L 81.809817,9.7503265 a 13.94,13.94 0 0 0 -13.32,-9.75000004639 h -0.08 a 14.22,14.22 0 0 0 -13.5,9.76000004639 l -35.7,109.9300035 c 0,0.1 -0.08,0.18 -0.11,0.28 l -18.10000009,55.61 a 20.29,20.29 0 0 0 7.36999999,22.71 l 156.3800031,113.63 a 8,8 0 0 0 9.45,-0.05 v 0 l 156.41,-113.58 a 20.28,20.28 0 0 0 7.36,-22.72 z m -233.75,-45.13 43.59,134.16 -104.640003,-134.16 z m 87,134.19 41.8,-128.62 1.8,-5.57 h 61.1 l -94.67,121.28 z m 79.47,-244.580004 30.63,94.330004 h -61.31 z m -52.71,110.330004 -30.37,93.46 -18.12,55.66 -48.42,-149.12 z M 68.339817,20.050326 l 30.69,94.330004 h -61.27 z m -50.56,165.300004 a 4.31,4.31 0 0 1 -1.56,-4.83 l 13.44,-41.3 98.570003,126.37 z m 303.430003,0 -110.46,80.21 0.37,-0.48 98.2,-125.86 13.44,41.28 a 4.31,4.31 0 0 1 -1.55,4.84 z"
     class="cls-1" />
</svg>
